<svg xmlns="http://www.w3.org/2000/svg"  viewBox="0 0 50 50" width="50px" height="50px" baseProfile="basic"><polygon fill="#999" points="41,13.453 41,15.762 39,16.915 37,38.856 25,45.78 13,38.855 11,16.915 9,15.762 9,13.453 25,4.215"/><polygon fill="#a8a8a8" points="13,11.144 25,4.215 37,11.144 25,18.072"/><polygon fill="#bfbfbf" points="25,24.997 25,45.785 13,38.856 11,16.913"/><polygon fill="#737373" points="25,24.997 25,45.785 37,38.856 38.999,16.912"/><polygon fill="#ccc" points="25,24.997 9,15.762 9,13.453 25,22.691"/><polygon fill="gray" points="41,13.453 41,15.762 25,24.997 25,22.691"/><polygon fill="#ccc" points="25,20.381 13,13.453 13,11.144 25,18.072"/><polygon fill="gray" points="37,11.144 37,13.453 25,20.381 25,18.072"/><polygon fill="#bababa" points="28.001,11.716 26,12.872 22.001,10.562 22.001,8.253 24.001,7.098 28,9.407"/><polygon fill="gray" points="26,10.562 26,12.872 28.001,11.716 28,9.407"/><polygon fill="#ccc" points="26.001,12.871 26,10.562 22,8.252 22.001,10.562"/><polygon fill="#a8a8a8" points="22,29.041 20,27.887 20,37.124 22.001,38.279"/><polygon fill="#a8a8a8" points="17,26.155 15,25 15.498,34.525 17.498,35.68"/></svg>